<?xml version="1.0" standalone="no"?>
<!DOCTYPE svg PUBLIC "-//W3C//DTD SVG 20010904//EN"
 "http://www.w3.org/TR/2001/REC-SVG-20010904/DTD/svg10.dtd">
<svg version="1.0" xmlns="http://www.w3.org/2000/svg"
 width="306.000000pt" height="306.000000pt" viewBox="0 0 306.000000 306.000000"
 preserveAspectRatio="xMidYMid meet">
<metadata>
Created by potrace 1.14, written by Peter Selinger 2001-2017
</metadata>
<g transform="translate(0.000000,306.000000) scale(0.100000,-0.100000)"
fill="#000000" stroke="none">
<path d="M1440 2888 c-36 -4 -85 -10 -110 -12 -55 -6 -210 -50 -265 -75 -22
-10 -58 -27 -80 -37 -22 -10 -42 -18 -45 -19 -19 -2 -175 -105 -240 -158 -52
-43 -240 -230 -240 -239 0 -4 353 -361 785 -794 432 -432 785 -789 785 -794 0
-24 -161 -92 -274 -117 -139 -30 -335 -19 -485 28 -221 69 -443 272 -536 489
-41 97 -43 103 -49 133 -5 22 -12 27 -36 28 -39 1 -397 1 -410 0 -31 -3 25
-212 99 -367 75 -156 188 -312 295 -404 17 -14 37 -32 45 -41 35 -36 202 -147
272 -182 139 -68 344 -130 479 -143 197 -19 398 7 599 78 204 72 353 171 545
361 l110 108 -792 792 c-476 476 -789 796 -784 803 15 24 187 94 267 109 189
36 366 21 535 -48 235 -95 442 -312 520 -547 12 -36 27 -71 32 -78 8 -9 62
-12 227 -10 209 3 216 4 215 23 -4 89 -55 248 -122 380 -110 218 -307 428
-516 549 -112 65 -246 123 -322 141 -10 2 -46 11 -79 19 -125 30 -293 39 -425
24z"/>
</g>
</svg>
